<?xml version="1.0" encoding="utf-8"?>
<!-- Generator: Adobe Illustrator 25.4.2, SVG Export Plug-In . SVG Version: 6.00 Build 0)  -->
<svg version="1.1" id="Logo_Final" xmlns="http://www.w3.org/2000/svg" xmlns:xlink="http://www.w3.org/1999/xlink" x="0px" y="0px"
	 viewBox="0 0 250.42 205.49" style="enable-background:new 0 0 250.42 205.49;" xml:space="preserve">
<style type="text/css">
	.st0{fill:#58595B;}
	.st1{fill:none;stroke:#58595B;stroke-width:0.5;stroke-miterlimit:10;}
	.st2{fill:none;stroke:#6D6E71;stroke-width:0.5;stroke-miterlimit:10;}
	.st3{fill:none;stroke:#58595B;stroke-width:3.5;stroke-miterlimit:10;}
	.st4{display:none;}
	.st5{display:inline;fill:#414042;}
	.st6{fill:none;stroke:#58595B;stroke-width:5;stroke-miterlimit:10;}
	.st7{display:none;fill:none;stroke:#6D6E71;stroke-width:5;stroke-miterlimit:10;}
	.st8{display:none;opacity:0.29;}
	.st9{display:inline;}
	.st10{fill:#939598;}
	.st11{fill:none;stroke:#58595B;stroke-width:2;stroke-miterlimit:10;}
	.st12{fill:#58595B;stroke:#58595B;stroke-width:0.5;stroke-miterlimit:10;}
</style>
<g>
	<path class="st0" d="M53.01,182.04c-0.36-9.7-0.55-19.39-0.8-29.09c-0.27-9.7-0.39-19.39-0.57-29.09l-0.35-29.09l-0.2-29.09
		l-0.04-6l3.53,4.87l22.3,30.8c7.38,10.31,14.82,20.57,22.14,30.92l11.02,15.5l10.95,15.55c3.66,5.18,7.29,10.37,10.9,15.58
		c3.62,5.2,7.26,10.4,10.83,15.63l-1.52,0.49l0.38-31.69l0.2-15.84l0.25-15.84l0.25,15.84l0.2,15.84l0.38,31.69l0.03,2.52
		l-1.55-2.03c-3.84-5.04-7.63-10.13-11.43-15.2c-3.8-5.07-7.59-10.16-11.35-15.26l-11.31-15.29l-11.24-15.34
		c-7.52-10.21-14.91-20.5-22.37-30.75L51.44,66.8l3.49-1.13l-0.2,29.09l-0.35,29.09c-0.19,9.7-0.3,19.39-0.57,29.09
		C53.55,162.64,53.36,172.34,53.01,182.04z"/>
</g>
<g>
	<polygon class="st0" points="55.04,70.98 141.6,189.7 51.84,73.38 	"/>
</g>
<line class="st1" x1="142.04" y1="67.13" x2="142.04" y2="96"/>
<line class="st2" x1="142.04" y1="125.64" x2="142.04" y2="167.15"/>
<line class="st3" x1="53.01" y1="78.89" x2="53.01" y2="187.26"/>
<g class="st4">
	<path class="st5" d="M178.63,55.93c-3.34-5.35-7.23-10.36-11.6-14.9l-1.66-1.69c-0.55-0.57-1.1-1.12-1.71-1.64
		c-1.18-1.05-2.34-2.11-3.53-3.14l-3.72-2.92c-1.25-0.96-2.58-1.8-3.87-2.71c-5.25-3.49-10.85-6.43-16.71-8.76
		c-5.85-2.36-11.99-3.94-18.19-4.95c-6.22-0.98-12.54-1.38-18.83-1c-6.29,0.37-12.53,1.42-18.59,3.14
		c-12.11,3.43-23.48,9.49-33.03,17.69c-9.57,8.16-17.49,18.31-22.83,29.72c-5.37,11.39-8.25,23.95-8.31,36.54
		c-0.07,12.6,2.65,25.2,7.91,36.65c5.22,11.47,12.95,21.79,22.47,30.08c-9.57-8.23-17.38-18.51-22.69-29.98
		c-5.31-11.47-8.06-24.11-8.02-36.76c0.04-12.65,2.9-25.27,8.27-36.72c5.33-11.48,13.27-21.7,22.88-29.92
		c9.62-8.23,21.06-14.29,33.24-17.71c6.09-1.71,12.36-2.76,18.68-3.11c6.32-0.37,12.66,0.05,18.9,1.04
		c6.23,1.03,12.39,2.63,18.25,5.01c5.87,2.35,11.49,5.31,16.73,8.83c1.29,0.92,2.61,1.78,3.86,2.74l3.71,2.95
		c1.19,1.04,2.35,2.11,3.52,3.17c0.6,0.52,1.15,1.08,1.7,1.65l1.65,1.7C171.46,45.52,175.32,50.55,178.63,55.93z"/>
</g>
<path class="st6" d="M4.94,101.7c0,43.38,28.57,80.62,67.76,93.76c9.78,3.28,20.23,5.06,31.06,5.06c48.96,0,90.09-36.39,97.6-83.37"
	/>
<path class="st7" d="M188.1,50.18c-17.93-29.35-49.94-47.31-84.33-47.31c-54.21,0-98.82,44.61-98.82,98.82s44.61,98.82,98.82,98.82
	c48.96,0,90.09-36.39,97.6-83.37"/>
<g>
	<path class="st0" d="M188.1,50.18l-2.44-3.54l-1.22-1.77l-1.33-1.69l-2.66-3.37l-2.87-3.19c-0.48-0.53-0.94-1.08-1.44-1.59
		l-1.52-1.51c-1.02-1-2.01-2.03-3.06-2.99c-2.17-1.85-4.24-3.82-6.56-5.49c-4.46-3.55-9.34-6.53-14.34-9.22l-3.81-1.9
		c-1.26-0.65-2.6-1.13-3.9-1.71c-2.58-1.18-5.3-2.01-7.97-2.97c-21.57-6.95-45.47-6.28-66.31,2.26
		c-20.89,8.37-38.61,24.2-49.36,43.86c-5.36,9.83-9.07,20.56-10.79,31.62c-1.64,11.06-1.45,22.41,0.77,33.37
		c2.2,10.96,6.31,21.53,12.1,31.11c5.83,9.56,13.32,18.09,21.98,25.19c17.31,14.26,39.71,22.19,62.22,21.87
		c11.25-0.1,22.47-2.23,33.03-6.21c10.57-3.96,20.44-9.82,29.07-17.16c8.66-7.31,16.09-16.14,21.81-25.99
		c2.86-4.93,5.3-10.11,7.27-15.48c2-5.35,3.53-10.9,4.57-16.54c-3.02,22.81-14.78,44.33-32.04,59.86
		c-8.65,7.75-18.67,14.01-29.49,18.37c-10.82,4.37-22.46,6.74-34.15,7.05c-23.43,0.81-46.99-7.38-65.28-22.09
		c-9.16-7.36-17.01-16.31-23.18-26.32c-6.12-10.04-10.49-21.14-12.83-32.68c-2.3-11.55-2.46-23.48-0.69-35.1
		c1.87-11.61,5.75-22.9,11.48-33.15c5.73-10.26,13.29-19.45,22.12-27.16c4.42-3.85,9.15-7.34,14.17-10.36
		c5.03-3.01,10.31-5.58,15.77-7.67c10.92-4.19,22.57-6.51,34.24-6.59l2.19-0.03l2.18,0.09l4.37,0.19l4.34,0.47l2.17,0.24l2.15,0.38
		l4.3,0.76l4.24,1.03c0.7,0.18,1.42,0.33,2.11,0.53l2.08,0.65c1.38,0.44,2.78,0.84,4.15,1.33C157.66,14.72,176.58,30.29,188.1,50.18
		z"/>
</g>
<g class="st8">
	<g class="st9">
		<g>
			<path class="st10" d="M201.36,117.15c-0.04,0.86,0.03,3.8-0.45,8.57c-0.53,4.75-1.56,11.39-4.24,19.32
				c-1.29,3.98-3.1,8.23-5.33,12.71c-2.25,4.47-5.04,9.14-8.47,13.8c-6.84,9.31-16.24,18.79-28.53,26.4
				c-6.12,3.81-12.94,7.15-20.33,9.78c-7.39,2.63-15.38,4.45-23.72,5.38c-16.64,1.86-34.92-0.34-52.06-7.35
				c-8.55-3.51-16.88-8.08-24.48-13.83c-3.87-2.8-7.46-5.99-10.97-9.29l-2.55-2.58l-1.27-1.3l-1.22-1.35l-2.43-2.71l-2.3-2.84
				c-6.13-7.58-11.18-16.12-15.18-25.16c-1.93-4.55-3.67-9.21-4.98-14c-0.73-2.37-1.24-4.81-1.82-7.22
				c-0.28-1.21-0.46-2.44-0.69-3.66c-0.2-1.22-0.47-2.44-0.6-3.68c-1.36-9.84-1.52-19.81-0.25-29.59
				c1.28-9.77,3.73-19.36,7.49-28.29c1.79-4.51,4.02-8.79,6.34-12.96c2.46-4.1,4.97-8.13,7.88-11.83c1.38-1.9,2.93-3.67,4.41-5.46
				c0.74-0.9,1.56-1.73,2.33-2.6c0.79-0.85,1.55-1.73,2.38-2.53c1.66-1.61,3.26-3.27,4.99-4.76c0.86-0.76,1.71-1.52,2.56-2.27
				c0.88-0.72,1.76-1.44,2.64-2.15C37.6,10.04,45.26,5.43,53.13,1.82C61-1.78,69.08-4.38,77.1-5.9c16.06-3.1,31.61-2.25,45.03,1.17
				c6.72,1.68,12.96,3.89,18.58,6.6c2.85,1.24,5.47,2.78,8.03,4.19c1.28,0.69,2.47,1.53,3.67,2.28c1.18,0.79,2.38,1.48,3.47,2.31
				c8.92,6.35,15.5,13.18,20.19,19.2c0.58,0.76,1.15,1.49,1.7,2.21c0.27,0.36,0.54,0.71,0.81,1.05c0.24,0.36,0.48,0.72,0.72,1.07
				c0.93,1.41,1.79,2.73,2.6,3.96c1.51,2.52,2.7,4.71,3.63,6.47c1.72,3.64,2.56,5.57,2.56,5.57c-5.95-14.17-16.68-26.5-29.81-35.11
				c-2.24-1.56-4.47-3.17-6.85-4.54c-1.18-0.7-2.34-1.45-3.55-2.1l-3.67-1.91c-0.62-0.31-1.22-0.65-1.85-0.94l-1.9-0.83l-3.81-1.67
				l-3.91-1.43c-1.31-0.48-2.61-0.97-3.96-1.33l-4.02-1.17c-1.34-0.41-2.72-0.64-4.08-0.96c-1.37-0.28-2.73-0.65-4.11-0.86
				l-4.16-0.63c-0.7-0.1-1.39-0.23-2.09-0.3l-2.1-0.18l-4.22-0.36c-2.82-0.09-5.65-0.21-8.48-0.08C84.2-3.93,72.84-1.63,62.06,2.36
				c-10.74,4.1-20.93,9.86-29.91,17.23c-4.48,3.69-8.75,7.68-12.61,12.06c-3.86,4.38-7.41,9.05-10.55,14.01
				C5.81,50.6,3.1,55.85,0.79,61.28c-2.3,5.43-4.24,11.05-5.57,16.83c-1.37,5.77-2.32,11.65-2.74,17.58
				c-0.39,5.93-0.34,11.89,0.2,17.82c0.56,5.93,1.63,11.82,3.15,17.6c1.5,5.78,3.53,11.42,6,16.85
				c4.88,10.9,11.63,20.92,19.73,29.66c4.03,4.39,8.48,8.38,13.19,12.03c4.71,3.64,9.68,6.96,14.94,9.75
				c5.24,2.83,10.71,5.21,16.32,7.16c5.62,1.95,11.42,3.33,17.26,4.32c5.85,0.99,11.77,1.41,17.66,1.37
				c5.89-0.04,11.77-0.53,17.55-1.57c11.56-2.05,22.69-6.07,32.75-11.74c10.07-5.67,19.04-13.04,26.49-21.54
				c7.45-8.51,13.41-18.17,17.42-28.46C199.15,138.64,201.35,127.82,201.36,117.15z"/>
			<path class="st10" d="M176.02,174.6c-0.97,1-6.31,7.43-17.38,15.15c-2.75,1.95-5.92,3.84-9.42,5.78
				c-3.54,1.85-7.41,3.76-11.71,5.36c-4.29,1.62-8.93,3.12-13.93,4.23c-5,1.1-10.33,1.92-15.92,2.29
				c-11.16,0.75-23.42-0.4-35.73-3.98c-12.28-3.63-24.56-9.8-35.48-18.47c-10.92-8.64-20.52-19.75-27.49-32.62
				c-7-12.83-11.37-27.39-12.47-42.17c-0.57-7.39-0.33-14.82,0.64-22.12c1-7.3,2.74-14.46,5.21-21.28
				c4.89-13.67,12.59-25.95,21.89-35.99C33.53,20.72,44.42,12.9,55.61,7.49c5.6-2.72,11.27-4.85,16.87-6.46
				c5.62-1.56,11.15-2.59,16.5-3.2c5.34-0.65,10.5-0.67,15.36-0.53c2.43,0.19,4.8,0.28,7.08,0.55c2.28,0.33,4.5,0.55,6.62,0.96
				c8.51,1.5,15.64,3.94,21.27,6.35c2.85,1.12,5.27,2.41,7.39,3.47c0.53,0.27,1.04,0.53,1.52,0.78c0.47,0.28,0.93,0.54,1.36,0.79
				c0.87,0.51,1.65,0.97,2.36,1.38c0.7,0.42,1.32,0.78,1.85,1.1c0.52,0.35,0.95,0.64,1.3,0.88c0.7,0.47,1.06,0.71,1.06,0.71
				c-2.63-1.7-5.48-3.04-8.26-4.47c-2.89-1.21-5.73-2.54-8.72-3.46l-2.22-0.75l-1.11-0.37l-1.13-0.3l-4.53-1.16
				c-1.52-0.36-3.06-0.59-4.59-0.88l-2.3-0.41l-2.32-0.26c-8.44-1.67-17.12-2.3-25.77-1.78c-8.66,0.47-17.25,2.21-25.53,4.91
				c-8.28,2.73-16.2,6.6-23.56,11.35c-7.31,4.83-14.12,10.48-20.03,17.02C14.12,46.69,5.6,62.89,1.59,80.25
				c-1.99,8.68-2.79,17.64-2.53,26.57c0.35,8.93,1.83,17.84,4.45,26.41c0.72,2.12,1.34,4.28,2.2,6.36c0.41,1.04,0.8,2.09,1.23,3.13
				l1.37,3.07c0.44,1.03,0.93,2.04,1.45,3.04l1.52,3l1.66,2.93l0.83,1.46l0.9,1.42l1.81,2.84l1.94,2.75l0.97,1.38l1.03,1.33
				l2.07,2.66l2.19,2.55l1.1,1.27l1.15,1.23l2.32,2.44l2.42,2.34c1.59,1.59,3.35,2.99,5.02,4.48l2.64,2.09
				c0.88,0.7,1.76,1.39,2.69,2.03l2.74,1.96c0.93,0.62,1.89,1.22,2.83,1.83c1.87,1.25,3.86,2.3,5.8,3.44
				c3.97,2.1,8.01,4.09,12.23,5.65c2.08,0.86,4.23,1.52,6.36,2.24c1.06,0.36,2.16,0.62,3.24,0.93c1.09,0.29,2.16,0.63,3.26,0.86
				c17.48,4.21,36.01,3.72,53.09-1.48C148.64,197.29,164.12,187.48,176.02,174.6z"/>
			<path class="st10" d="M129.17,198.36c-0.54,0.13-2.33,0.7-5.3,1.31c-2.96,0.68-7.1,1.37-12.27,1.84
				c-5.16,0.44-11.37,0.58-18.34-0.13c-6.97-0.7-14.7-2.28-22.72-5.08c-1.01-0.32-2.01-0.73-3.01-1.12c-1-0.4-2.03-0.78-3.04-1.22
				c-2-0.92-4.07-1.78-6.08-2.86c-4.08-2.03-8.1-4.48-12.05-7.24c-3.97-2.73-7.8-5.89-11.47-9.34c-1.86-1.7-3.6-3.57-5.37-5.43
				c-1.69-1.94-3.42-3.87-4.99-5.96c-3.2-4.13-6.19-8.53-8.77-13.24c-2.58-4.71-4.83-9.66-6.67-14.8
				c-1.87-5.14-3.24-10.49-4.21-15.92c-0.94-5.43-1.54-10.96-1.53-16.49C3.3,97.14,3.7,91.62,4.55,86.18
				c0.87-5.43,2.22-10.75,3.94-15.9c0.83-2.58,1.86-5.08,2.87-7.57c0.56-1.22,1.12-2.44,1.67-3.65c0.55-1.22,1.21-2.38,1.81-3.56
				c2.5-4.68,5.28-9.14,8.37-13.25c3.1-4.11,6.44-7.92,9.94-11.42c3.53-3.46,7.24-6.59,11-9.41c3.8-2.77,7.66-5.24,11.54-7.36
				c3.9-2.08,7.75-3.94,11.58-5.38C74.9,5.69,82.23,3.88,88.8,2.94c6.57-0.97,12.37-1.11,17.12-0.95c4.76,0.08,8.46,0.63,10.98,0.89
				c2.51,0.43,3.84,0.66,3.84,0.66l-3.66-0.34c-1.22-0.09-2.45-0.08-3.67-0.12c-1.22-0.01-2.44-0.07-3.65-0.04l-3.65,0.19
				c-2.42,0.07-4.83,0.43-7.22,0.7c-2.38,0.43-4.76,0.76-7.09,1.36c-13.14,1.64-25.93,6.02-37.36,12.74
				c-11.45,6.7-21.53,15.75-29.46,26.43C17.03,55.13,11.23,67.43,8.16,80.44C5.07,93.43,4.7,107.1,7.1,120.31
				c2.39,13.21,7.55,25.95,15.1,37.14c7.52,11.2,17.35,20.89,28.72,28.27c11.36,7.39,24.29,12.44,37.73,14.61
				C102.08,202.52,115.98,201.83,129.17,198.36z"/>
			<path class="st10" d="M96.64,196.52c-0.21-0.02-0.67-0.06-1.37-0.11c-0.35-0.03-0.75-0.07-1.22-0.11
				c-0.46-0.06-0.98-0.14-1.55-0.22c-2.29-0.29-5.44-0.79-9.26-1.7c-7.63-1.8-18.08-5.29-28.94-12.17
				c-10.81-6.83-22-17.06-30.32-30.44c-4.23-6.63-7.6-14.06-10.13-21.85c-1.18-3.92-2.25-7.92-2.92-12.01
				c-0.42-2.03-0.61-4.1-0.89-6.15c-0.13-1.03-0.17-2.07-0.26-3.1c-0.07-1.03-0.19-2.07-0.19-3.11
				c-0.73-16.6,3.14-33.24,10.32-46.99c3.51-6.93,7.8-13.14,12.41-18.56c4.61-5.43,9.56-10.04,14.46-13.85
				c4.91-3.81,9.77-6.82,14.24-9.17c0.56-0.3,1.11-0.59,1.65-0.88c0.55-0.26,1.09-0.52,1.63-0.77c1.07-0.49,2.08-1.02,3.09-1.44
				c2.02-0.83,3.86-1.64,5.58-2.21c0.85-0.31,1.66-0.6,2.42-0.87c0.77-0.25,1.5-0.46,2.17-0.67c1.35-0.4,2.49-0.79,3.44-1
				c1.89-0.47,2.89-0.72,2.89-0.72c-7.14,2.46-13.86,5.81-19.98,9.86C45.87,27.36,30.79,42.17,21.64,60.1
				c-2.28,4.48-4.28,9.11-5.81,13.9c-1.53,4.79-2.7,9.69-3.46,14.66c-0.81,4.97-1.08,10.02-1.04,15.06
				c-0.01,2.52,0.19,5.04,0.36,7.56l0.44,3.76c0.14,1.25,0.4,2.49,0.59,3.74c3.4,19.93,13.75,38.63,28.69,52.6
				c3.71,3.53,7.78,6.67,12.03,9.54c4.26,2.86,8.74,5.4,13.42,7.55C76.23,192.69,86.31,195.54,96.64,196.52z"/>
			<path class="st10" d="M73.58,186.29c-0.31-0.08-1.3-0.51-2.91-1.19c-1.62-0.65-3.79-1.7-6.43-3.05c-1.3-0.73-2.77-1.43-4.25-2.38
				c-0.75-0.45-1.53-0.93-2.34-1.41c-0.78-0.52-1.59-1.07-2.42-1.62c-3.31-2.26-6.89-4.95-10.44-8.26
				c-7.14-6.52-14.35-15.26-19.77-25.8c-2.71-5.26-4.98-10.94-6.66-16.88c-1.66-5.94-2.76-12.12-3.16-18.36
				c-0.87-12.49,1.02-25.04,4.95-36.05c3.9-11.04,9.76-20.48,15.75-27.71c1.47-1.84,3.01-3.48,4.45-5.07
				c1.53-1.5,2.91-3.01,4.36-4.26c0.71-0.65,1.39-1.27,2.05-1.87c0.69-0.57,1.35-1.12,1.99-1.65c1.25-1.09,2.49-1.98,3.59-2.81
				c1.08-0.85,2.11-1.53,2.99-2.13c0.89-0.6,1.62-1.15,2.25-1.52c1.25-0.78,1.92-1.19,1.92-1.19c-4.51,3.57-8.62,7.51-12.23,11.79
				C35.74,44.99,26.94,58.04,21.74,72.31c-2.51,7.17-4.28,14.61-4.89,22.19l-0.24,2.84l-0.09,2.85l-0.05,1.43l0.03,1.43l0.05,2.86
				c0.21,3.8,0.5,7.6,1.19,11.35c1.21,7.53,3.56,14.85,6.66,21.86c1.62,3.47,3.37,6.9,5.42,10.16c0.96,1.67,2.1,3.22,3.17,4.83
				c0.56,0.79,1.15,1.55,1.73,2.32c0.57,0.78,1.15,1.55,1.78,2.28C46.15,170.8,59.06,180.37,73.58,186.29z"/>
			<path class="st10" d="M62.04,176.22c-0.21-0.13-0.91-0.56-2.04-1.25c-0.57-0.34-1.21-0.82-1.96-1.32
				c-0.74-0.53-1.62-1.06-2.51-1.76c-3.68-2.65-8.5-6.7-13.47-12.16c-0.63-0.67-1.26-1.37-1.86-2.12c-0.61-0.74-1.23-1.48-1.86-2.24
				c-1.19-1.58-2.47-3.16-3.62-4.91c-2.36-3.44-4.63-7.19-6.59-11.25c-1.97-4.05-3.69-8.36-5.09-12.84
				c-1.38-4.49-2.35-9.15-2.98-13.86c-0.61-4.7-0.89-9.46-0.71-14.13c0.17-4.67,0.7-9.23,1.5-13.6c0.88-4.35,2.04-8.49,3.35-12.35
				c1.38-3.84,2.93-7.38,4.53-10.57c3.22-6.38,6.71-11.27,9.25-14.59c1.34-1.6,2.33-2.93,3.1-3.74c0.75-0.84,1.14-1.29,1.14-1.29
				c-2.48,3.61-4.64,7.39-6.46,11.27c-6.6,9.65-11.24,20.53-13.52,31.88c-2.26,11.34-2.24,23.2,0.18,34.55
				c2.37,11.37,7.16,22.27,13.91,31.94C43.13,161.5,51.91,169.85,62.04,176.22z"/>
		</g>
	</g>
</g>
<line class="st11" x1="141.73" y1="116.98" x2="250.42" y2="116.98"/>
<g id="Layer_5">
	<path class="st12" d="M142.74,105.92l0.53-0.01c1.87-0.04,3.38,0.42,4.55,1.38c1.16,0.96,1.76,2.12,1.78,3.49
		c0.03,1.37-0.52,2.55-1.64,3.55c-1.12,1-2.62,1.52-4.5,1.55l-0.53,0.01L142.74,105.92z M143.42,106.31l-0.13,0l0.18,9.17l0.13,0
		c1.62-0.03,2.94-0.51,3.97-1.42c1.02-0.92,1.52-2,1.5-3.26c-0.02-1.25-0.56-2.33-1.62-3.21
		C146.38,106.7,145.04,106.28,143.42,106.31z"/>
	<path class="st12" d="M155.16,115.82l-0.15,0c-1.06-0.02-1.97-0.35-2.74-0.98c-0.77-0.63-1.15-1.36-1.13-2.18
		c0.02-0.82,0.42-1.52,1.21-2.11c0.79-0.58,1.76-0.86,2.9-0.84c1.14,0.02,2.12,0.4,2.93,1.12l-5.32,3.9c0.71,0.46,1.4,0.7,2.07,0.72
		c0.67,0.01,1.27-0.09,1.8-0.32c0.53-0.23,0.98-0.53,1.33-0.92l-0.01,0.66C157.25,115.53,156.28,115.84,155.16,115.82z
		 M155.11,110.07c-0.88-0.02-1.67,0.23-2.37,0.75c-0.69,0.52-1.05,1.12-1.06,1.81s0.27,1.3,0.85,1.83l4.93-3.64
		C156.77,110.34,155.99,110.09,155.11,110.07z"/>
	<path class="st12" d="M162.76,110.36c-0.29-0.01-0.55,0.06-0.77,0.2c-0.23,0.14-0.34,0.31-0.34,0.52c0,0.21,0.12,0.41,0.36,0.59
		c0.25,0.18,0.54,0.35,0.89,0.5c0.35,0.16,0.7,0.32,1.05,0.49c0.35,0.18,0.65,0.4,0.9,0.66c0.25,0.27,0.36,0.57,0.36,0.9
		c-0.01,0.5-0.27,0.91-0.77,1.25c-0.5,0.34-1.1,0.5-1.8,0.49c-0.44-0.01-0.86-0.09-1.24-0.25c-0.38-0.15-0.66-0.36-0.83-0.6
		l0.01-0.6c0.41,0.71,1.08,1.08,2.01,1.1c0.58,0.01,1.07-0.11,1.47-0.37c0.4-0.26,0.6-0.56,0.61-0.89c0.01-0.33-0.11-0.61-0.36-0.85
		c-0.24-0.23-0.54-0.43-0.9-0.6c-0.35-0.17-0.7-0.33-1.05-0.49c-0.35-0.16-0.64-0.36-0.89-0.59c-0.25-0.23-0.36-0.49-0.36-0.79
		c0.01-0.3,0.17-0.55,0.49-0.75s0.73-0.29,1.23-0.28c0.5,0.01,0.92,0.17,1.27,0.47l-0.01,0.52
		C163.75,110.58,163.31,110.37,162.76,110.36z"/>
	<path class="st12" d="M168.63,108.82c-0.32-0.01-0.48-0.12-0.48-0.35c0-0.23,0.17-0.33,0.49-0.33c0.32,0.01,0.48,0.12,0.48,0.35
		C169.11,108.72,168.95,108.83,168.63,108.82z M168.87,110.2l-0.12,5.62l-0.53-0.01l0.12-5.62L168.87,110.2z"/>
	<path class="st12" d="M179.31,110.38l0.53,0.01l-0.13,8.45c-0.02,0.92-0.39,1.64-1.11,2.16c-0.72,0.52-1.66,0.77-2.82,0.74
		c-0.63-0.01-1.25-0.13-1.84-0.35c-0.6-0.22-1.06-0.5-1.38-0.84l0.01-0.55c0.28,0.39,0.73,0.72,1.34,0.98s1.24,0.41,1.88,0.42
		c0.98,0.02,1.78-0.2,2.42-0.66c0.63-0.46,0.96-1.1,0.97-1.92l0.05-4.38c-0.31,0.43-0.79,0.77-1.44,1.02
		c-0.65,0.25-1.32,0.37-2.01,0.35c-1.09-0.02-2.02-0.32-2.78-0.89c-0.77-0.57-1.14-1.24-1.13-2.01c0.02-0.77,0.42-1.43,1.21-1.96
		c0.79-0.54,1.73-0.79,2.82-0.77c0.72,0.01,1.39,0.16,2.02,0.43c0.62,0.27,1.08,0.64,1.37,1.1L179.31,110.38z M172.4,112.94
		c-0.01,0.68,0.32,1.27,0.99,1.77c0.67,0.5,1.48,0.77,2.42,0.79c0.94,0.02,1.75-0.21,2.42-0.68c0.68-0.48,1.02-1.05,1.04-1.73
		c0.01-0.68-0.31-1.27-0.96-1.77c-0.66-0.5-1.45-0.77-2.39-0.78c-0.94-0.02-1.75,0.21-2.45,0.68
		C172.77,111.69,172.41,112.26,172.4,112.94z"/>
	<path class="st12" d="M183.47,115.81l-0.53-0.01l0.12-5.59l0.53,0.01l-0.02,1.13c0.58-0.83,1.56-1.24,2.93-1.21
		c0.93,0.02,1.71,0.28,2.34,0.77c0.62,0.49,0.93,1.08,0.91,1.77l-0.07,3.26l-0.53-0.01l0.07-3.26c0.01-0.57-0.25-1.07-0.78-1.51
		c-0.53-0.43-1.18-0.66-1.95-0.67c-0.77-0.02-1.45,0.18-2.04,0.59c-0.59,0.41-0.89,0.9-0.91,1.47L183.47,115.81z"/>
	<path class="st12" d="M204.43,107.28c-0.44-0.2-0.93-0.3-1.47-0.31s-1.01,0.11-1.4,0.34s-0.58,0.57-0.59,0.99l0,0.06
		c-0.01,0.5,0.37,0.97,1.14,1.39c0.33,0.18,0.7,0.36,1.12,0.54c0.41,0.18,0.83,0.37,1.24,0.57c0.41,0.2,0.79,0.41,1.12,0.64
		c0.34,0.22,0.61,0.5,0.82,0.82c0.21,0.32,0.31,0.67,0.31,1.06l0,0.12c-0.01,0.76-0.38,1.35-1.1,1.79
		c-0.72,0.43-1.61,0.64-2.67,0.63c-1.39-0.02-2.46-0.45-3.21-1.28l0.01-0.64c0.28,0.46,0.7,0.83,1.26,1.12
		c0.56,0.29,1.25,0.44,2.09,0.46s1.56-0.17,2.18-0.54c0.62-0.37,0.93-0.88,0.94-1.51l0-0.07c0.01-0.4-0.13-0.76-0.42-1.1
		c-0.28-0.34-0.64-0.61-1.07-0.83c-0.43-0.22-0.9-0.45-1.41-0.69c-0.51-0.24-0.98-0.46-1.41-0.67c-0.43-0.21-0.79-0.46-1.07-0.77
		c-0.28-0.31-0.42-0.64-0.42-1l0-0.08c0.01-0.56,0.26-0.98,0.77-1.27s1.12-0.42,1.86-0.41c1.02,0.02,1.83,0.3,2.42,0.85l-0.01,0.61
		C205.21,107.75,204.87,107.48,204.43,107.28z"/>
	<path class="st12" d="M212.3,115.57l-0.01,0.34c-0.79-0.01-1.46-0.21-2.01-0.61c-0.55-0.39-0.82-0.89-0.81-1.48l0.09-5.66
		l0.53,0.01l-0.03,2.2l2.3,0.04l-0.01,0.34l-2.3-0.04l-0.05,3.12c-0.01,0.49,0.21,0.9,0.66,1.23S211.66,115.56,212.3,115.57z"/>
	<path class="st12" d="M221.12,110.28l0.53,0.01l-0.09,5.47l-0.53-0.01l0.02-1.11c-0.58,0.82-1.55,1.22-2.92,1.19
		c-0.93-0.01-1.71-0.26-2.34-0.74c-0.63-0.48-0.93-1.06-0.92-1.73l0.05-3.18l0.53,0.01l-0.05,3.18c-0.01,0.56,0.25,1.05,0.79,1.47
		c0.53,0.42,1.18,0.64,1.95,0.65c0.77,0.01,1.45-0.18,2.04-0.59c0.59-0.4,0.89-0.89,0.9-1.44L221.12,110.28z"/>
	<path class="st12" d="M231.94,106.64l-0.15,9.4l-0.53-0.01l0.02-1.37c-0.34,0.45-0.83,0.81-1.47,1.07
		c-0.64,0.26-1.29,0.39-1.96,0.38c-1.1-0.02-2.03-0.32-2.8-0.91c-0.76-0.59-1.14-1.29-1.13-2.1s0.41-1.5,1.19-2.07
		c0.78-0.57,1.72-0.84,2.82-0.83c0.69,0.01,1.35,0.16,1.99,0.44c0.63,0.29,1.1,0.66,1.39,1.13l0.08-5.14L231.94,106.64z
		 M224.47,113.11c-0.01,0.71,0.31,1.32,0.97,1.85c0.66,0.52,1.46,0.79,2.4,0.81c0.94,0.01,1.76-0.23,2.45-0.73
		c0.69-0.5,1.04-1.11,1.05-1.81s-0.32-1.32-1-1.85c-0.67-0.53-1.48-0.81-2.41-0.82c-0.93-0.01-1.74,0.23-2.42,0.74
		C224.83,111.79,224.48,112.4,224.47,113.11z"/>
	<path class="st12" d="M235.78,108.63c-0.32-0.01-0.48-0.12-0.48-0.36c0-0.23,0.17-0.35,0.49-0.34c0.32,0.01,0.48,0.12,0.48,0.36
		C236.27,108.52,236.1,108.63,235.78,108.63z M236.03,110.05l-0.09,5.79l-0.53-0.01l0.09-5.79L236.03,110.05z"/>
	<path class="st12" d="M240.22,114.92c-0.76-0.64-1.13-1.38-1.12-2.21c0.01-0.84,0.41-1.55,1.2-2.15c0.79-0.6,1.73-0.89,2.82-0.87
		c1.09,0.02,2.02,0.34,2.79,0.96c0.76,0.62,1.14,1.35,1.12,2.2c-0.01,0.84-0.4,1.57-1.17,2.18c-0.77,0.61-1.69,0.91-2.77,0.89
		l-0.15,0C241.89,115.89,240.98,115.56,240.22,114.92z M246.51,112.85c0.01-0.74-0.31-1.39-0.98-1.95c-0.66-0.56-1.46-0.84-2.4-0.86
		c-0.93-0.01-1.75,0.25-2.44,0.79c-0.69,0.54-1.04,1.18-1.06,1.92c-0.01,0.74,0.32,1.38,1,1.94c0.67,0.55,1.48,0.84,2.42,0.85
		c0.94,0.01,1.75-0.24,2.42-0.77C246.15,114.23,246.5,113.6,246.51,112.85z"/>
</g>
</svg>
